<?xml version="1.0" standalone="no"?>
<!DOCTYPE svg PUBLIC "-//W3C//DTD SVG 20010904//EN"
 "http://www.w3.org/TR/2001/REC-SVG-20010904/DTD/svg10.dtd">
<svg version="1.0" xmlns="http://www.w3.org/2000/svg"
 width="500.000000pt" height="500.000000pt" viewBox="0 0 500.000000 500.000000"
 preserveAspectRatio="xMidYMid meet">

<g transform="translate(0.000000,500.000000) scale(0.100000,-0.100000)"
fill="#000000" stroke="none">
<path d="M2139 2823 c-13 -16 -12 -17 4 -4 9 7 17 15 17 17 0 8 -8 3 -21 -13z"/>
<path d="M3189 2823 c-13 -16 -12 -17 4 -4 16 13 21 21 13 21 -2 0 -10 -8 -17
-17z"/>
<path d="M2470 2799 c-29 -73 -95 -229 -142 -337 -27 -63 -47 -120 -44 -128 3
-8 2 -13 -3 -10 -4 3 -14 -7 -20 -22 -27 -60 -74 -123 -82 -111 -6 10 -13 10
-31 2 -114 -57 -279 -37 -363 44 -37 36 -85 124 -84 153 0 8 8 -3 17 -25 42
-101 97 -153 188 -181 66 -20 123 -18 198 7 l64 21 6 51 c5 34 4 53 -3 55 -6
2 -9 8 -5 13 13 22 -4 6 -26 -23 -19 -27 -20 -30 -4 -18 19 14 19 14 0 -7 -43
-52 -165 -56 -237 -9 -71 47 -112 169 -94 283 6 35 9 43 15 29 6 -18 7 -18 14
5 5 13 9 26 10 29 35 102 166 141 246 73 17 -14 33 -23 36 -20 8 8 -51 46 -97
62 -59 21 -109 5 -159 -52 -26 -30 -37 -37 -33 -23 7 28 77 86 112 93 68 14
154 -26 198 -92 25 -37 29 -51 12 -51 -5 0 -7 5 -4 10 3 6 1 10 -5 10 -6 0 -9
4 -5 9 3 5 1 12 -4 15 -18 12 -19 -10 -2 -32 20 -27 58 -21 44 7 -4 9 -9 56
-11 104 -3 87 -4 88 -23 71 -17 -15 -25 -15 -78 -4 -37 8 -83 10 -118 6 -32
-4 -68 -8 -80 -9 -11 -1 -19 -5 -17 -9 3 -4 -9 -14 -26 -23 -16 -8 -30 -20
-30 -25 0 -6 -6 -10 -12 -10 -7 1 3 15 22 32 19 16 26 26 15 20 -11 -6 -33
-25 -50 -43 -16 -18 -24 -29 -17 -25 18 11 15 -9 -5 -25 -11 -10 -14 -10 -9
-1 4 6 5 12 2 12 -7 0 -46 -76 -46 -87 1 -4 9 8 20 27 22 41 27 33 5 -10 -8
-15 -20 -30 -27 -32 -7 -3 -13 -37 -16 -97 -4 -83 -2 -100 22 -160 15 -37 40
-80 56 -96 16 -15 27 -31 25 -35 -7 -11 79 -61 98 -56 9 2 17 0 17 -5 0 -5 21
-6 48 -3 37 4 44 3 32 -6 -12 -9 1 -10 55 -6 39 3 130 6 203 6 100 0 132 3
132 13 0 7 -10 17 -22 22 -32 14 -34 47 -8 116 l22 59 110 0 109 0 14 -33 c7
-18 16 -46 19 -63 4 -20 1 -16 -9 12 l-16 41 -97 2 c-53 1 -99 4 -102 7 -2 3
39 4 93 2 53 -2 97 0 97 5 0 4 -47 7 -104 7 l-104 0 -17 -42 c-9 -24 -20 -50
-23 -58 -3 -8 6 -1 20 15 26 30 27 30 120 27 123 -5 151 -27 111 -89 l-17 -26
89 5 c50 3 99 2 110 -2 12 -6 -23 -10 -95 -11 l-115 -3 130 -5 c72 -3 148 -3
170 1 22 4 60 2 85 -3 25 -6 83 -11 130 -11 68 -1 93 3 126 20 59 30 72 56 79
158 10 144 -20 180 -198 235 -103 32 -147 61 -147 99 0 11 5 20 10 20 6 0 10
6 10 13 0 8 15 21 33 30 38 19 120 30 111 15 -4 -6 1 -8 13 -4 15 5 29 -4 57
-34 20 -22 37 -45 37 -50 1 -6 3 -14 4 -20 1 -5 3 -14 4 -20 0 -5 8 -10 17
-10 8 0 13 4 10 9 -4 5 -1 11 5 13 9 3 9 9 0 25 -6 12 -11 60 -11 108 l0 85
-24 -15 c-22 -15 -31 -15 -99 -1 -65 14 -81 14 -128 2 -30 -8 -57 -12 -60 -10
-9 5 -79 -73 -79 -89 0 -6 8 2 19 18 10 17 29 39 42 50 22 18 22 17 -2 -10
-41 -46 -49 -69 -49 -132 0 -64 21 -110 63 -138 13 -8 71 -31 128 -50 109 -36
149 -65 149 -108 -1 -18 -3 -17 -14 9 -18 41 -53 65 -85 59 -21 -4 -22 -4 -6
3 17 8 17 9 -9 16 -16 4 -31 5 -34 1 -3 -3 3 -5 13 -5 10 0 16 -3 13 -6 -3 -3
-25 0 -49 6 -33 9 -39 14 -28 22 10 7 5 8 -16 4 -23 -5 -27 -4 -15 5 12 8 8 9
-15 5 -20 -5 -25 -4 -16 3 11 7 8 11 -10 17 -13 4 -28 7 -34 5 -5 -1 -7 1 -2
5 4 4 -2 18 -14 30 -12 13 -28 47 -35 76 l-14 53 5 -48 c6 -57 46 -123 91
-149 43 -25 193 -68 212 -61 11 5 13 3 7 -7 -5 -8 -4 -11 3 -6 17 11 35 -33
29 -73 -6 -36 -6 -36 9 -11 12 20 14 21 12 5 -5 -35 -64 -65 -127 -65 -74 1
-129 27 -193 92 -29 29 -48 44 -43 33 4 -11 10 -51 13 -89 4 -57 2 -70 -12
-78 -14 -8 -15 -13 -5 -24 16 -20 0 -17 -38 6 -38 22 -47 39 -74 125 -11 36
-22 65 -26 65 -3 0 -3 -9 0 -20 3 -11 1 -18 -4 -14 -5 3 -9 12 -9 20 0 8 -4
22 -10 32 -21 36 -140 346 -137 356 2 6 20 -34 41 -88 21 -53 40 -95 43 -93 2
3 -17 64 -43 136 -32 89 -52 130 -60 127 -7 -3 -14 0 -16 6 -2 6 -10 -4 -18
-23z m-1 -58 c-6 -18 -13 -30 -15 -28 -2 2 1 18 7 36 6 18 13 30 15 28 2 -2
-1 -18 -7 -36z m665 7 c-2 -3 9 -17 25 -31 30 -25 71 -84 71 -102 0 -5 -16 14
-35 43 -40 59 -95 92 -153 92 -43 0 -88 -28 -102 -64 l-9 -21 0 22 c-1 12 12
32 30 47 29 24 38 26 104 24 40 -2 71 -6 69 -10z m-1019 -8 c3 -5 2 -10 -4
-10 -5 0 -13 5 -16 10 -3 6 -2 10 4 10 5 0 13 -4 16 -10z m311 -104 c-14 -31
-26 -61 -26 -66 0 -5 -5 -12 -10 -15 -6 -4 -2 15 9 42 29 73 44 104 48 99 3
-2 -7 -29 -21 -60z m94 -111 c23 -55 44 -106 47 -112 4 -10 -16 -13 -81 -13
-47 0 -86 4 -86 9 0 5 16 50 35 100 19 49 35 98 35 107 0 26 4 18 50 -91z
m-823 -72 c-2 -21 -4 -4 -4 37 0 41 2 58 4 38 2 -21 2 -55 0 -75z m1208 87
c10 -11 16 -20 13 -20 -3 0 -13 9 -23 20 -10 11 -16 20 -13 20 3 0 13 -9 23
-20z m-534 -27 c-12 -20 -14 -14 -5 12 4 9 9 14 11 11 3 -2 0 -13 -6 -23z
m724 -13 c13 -5 14 -9 5 -9 -8 0 -24 4 -35 9 -13 5 -14 9 -5 9 8 0 24 -4 35
-9z m83 -25 c40 -17 82 -52 82 -69 0 -5 -12 2 -27 17 -16 14 -48 35 -73 46
-52 24 -37 28 18 6z m-837 -28 c-10 -9 -11 -8 -5 6 3 10 9 15 12 12 3 -3 0
-11 -7 -18z m772 7 c26 -9 47 -20 47 -24 0 -5 -12 -3 -27 4 -16 7 -39 18 -53
24 -37 16 -20 14 33 -4z m-1309 -94 c7 -24 6 -24 -8 -6 -9 11 -16 29 -16 40 1
17 2 18 9 6 5 -8 12 -26 15 -40z m1 -74 l40 -51 -35 29 c-19 15 -43 42 -52 60
-19 35 -23 61 -5 32 7 -10 30 -41 52 -70z m458 -21 c-3 -9 -8 -14 -10 -11 -3
3 -2 9 2 15 9 16 15 13 8 -4z m957 -54 c0 -22 -202 -80 -233 -67 -7 2 2 5 18
6 26 2 24 3 -15 12 -25 6 -57 11 -72 12 -14 0 -24 4 -21 9 8 14 -20 7 -39 -10
-11 -9 -18 -11 -18 -5 0 7 5 12 11 12 6 0 9 6 6 13 -6 15 46 9 113 -12 60 -19
140 -13 195 13 28 14 51 25 53 25 1 1 2 -3 2 -8z m-902 -58 c-26 -2 -71 -2
-100 0 -29 2 -8 3 47 3 55 0 79 -1 53 -3z m-265 -10 c-7 -2 -21 -2 -30 0 -10
3 -4 5 12 5 17 0 24 -2 18 -5z m1084 1 c-3 -3 -12 -4 -19 -1 -8 3 -5 6 6 6 11
1 17 -2 13 -5z"/>
<path d="M2454 2511 c-9 -20 -20 -44 -25 -54 -11 -20 -4 -37 15 -37 8 0 16 14
20 30 4 24 11 30 31 30 14 0 25 -6 25 -13 0 -7 7 -22 15 -33 8 -10 4 10 -10
45 -14 36 -25 65 -25 66 0 1 -7 2 -15 2 -9 0 -23 -16 -31 -36z m54 -16 c-3 -3
-9 2 -12 12 -6 14 -5 15 5 6 7 -7 10 -15 7 -18z"/>
<path d="M3570 2809 c-7 -11 -9 -23 -6 -27 3 -3 6 1 6 8 0 7 2 11 5 9 2 -3 0
-22 -6 -44 -8 -29 -13 -35 -21 -24 -8 11 -8 10 -4 -5 8 -24 -13 -93 -24 -76
-5 8 -9 8 -13 -4 -3 -8 -2 -16 3 -18 4 -2 -1 -27 -12 -56 -11 -30 -24 -50 -30
-46 -6 4 -8 -2 -3 -16 4 -14 3 -20 -2 -17 -6 4 -15 -5 -22 -19 -16 -35 -13
-44 4 -14 17 30 20 21 4 -14 -7 -14 -15 -23 -19 -21 -11 7 -33 -52 -24 -66 5
-8 3 -9 -6 -4 -10 6 -12 4 -7 -9 4 -9 3 -15 -2 -12 -12 8 -35 -50 -25 -65 4
-7 3 -10 -3 -6 -5 3 -19 -6 -30 -21 -34 -48 -38 -58 -12 -37 l24 20 -24 -28
c-14 -15 -30 -27 -38 -27 -7 0 -13 -7 -13 -15 0 -12 19 -15 110 -15 115 0 133
8 80 35 -16 9 -30 21 -31 28 -3 30 4 63 22 103 l18 44 108 0 108 0 24 -59 c13
-33 21 -65 18 -73 -3 -8 -6 -5 -6 7 -1 11 -5 26 -10 33 -7 11 -9 10 -14 -3 -4
-9 -3 -13 3 -10 15 9 11 -28 -5 -49 -8 -11 -15 -23 -15 -28 0 -4 44 -9 98 -11
l97 -3 -105 -1 c-82 -1 -104 -4 -102 -14 8 -31 17 -32 291 -22 81 3 128 9 120
14 -10 6 -4 9 19 9 40 0 41 15 3 34 -38 20 -41 31 -41 139 l0 92 118 0 c113 0
119 1 164 30 60 38 77 69 85 162 7 71 -22 132 -78 170 -42 28 -44 28 -238 34
-108 3 -204 9 -213 13 -14 6 -18 3 -18 -14 0 -20 2 -21 17 -9 15 12 16 12 10
-4 -4 -10 -3 -16 2 -12 5 3 12 1 16 -5 4 -6 10 -8 13 -6 10 6 8 -391 -1 -400
-10 -11 -8 -102 2 -109 8 -5 9 -21 2 -68 0 -5 -5 -6 -10 -2 -5 3 -12 1 -16 -5
-3 -5 -17 -10 -30 -10 -26 0 -47 37 -105 188 -18 46 -34 81 -36 79 -2 -2 3
-20 11 -40 16 -39 20 -61 6 -37 -12 20 -131 327 -142 364 -12 42 2 23 28 -37
30 -70 29 -53 -4 44 -30 87 -54 114 -73 78z m773 -68 c36 -22 75 -67 66 -76
-3 -2 -20 10 -39 27 -70 61 -72 62 -214 61 -102 0 -116 1 -61 6 136 13 207 7
248 -18z m-52 -34 c56 -37 75 -125 40 -183 -28 -46 -109 -63 -225 -48 l-46 7
0 113 0 114 33 1 32 1 -30 8 c-21 5 0 8 66 9 85 1 100 -2 130 -22z m-665 -222
c15 -38 32 -73 38 -77 6 -4 -28 -8 -76 -8 -49 0 -88 4 -88 9 0 5 12 40 26 77
15 38 31 85 36 104 l10 34 13 -34 c7 -19 25 -66 41 -105z m384 44 c0 -24 -4
-38 -10 -34 -17 10 -11 75 7 75 2 0 3 -18 3 -41z m179 -93 c-9 -9 -89 -13 -89
-4 0 4 21 8 47 8 25 0 44 -2 42 -4z m-768 -49 c-10 -9 -11 -8 -5 6 3 10 9 15
12 12 3 -3 0 -11 -7 -18z m526 -94 c-2 -16 -4 -5 -4 22 0 28 2 40 4 28 2 -13
2 -35 0 -50z m172 -138 c2 -3 -49 -4 -115 -3 -111 1 -114 2 -44 8 75 6 150 3
159 -5z m-691 -2 c-26 -2 -71 -2 -100 0 -29 2 -8 3 47 3 55 0 79 -1 53 -3z
m350 -20 c-15 -2 -42 -2 -60 0 -18 2 -6 4 27 4 33 0 48 -2 33 -4z m180 0 c-10
-2 -28 -2 -40 0 -13 2 -5 4 17 4 22 1 32 -1 23 -4z m85 0 c-13 -2 -33 -2 -45
0 -13 2 -3 4 22 4 25 0 35 -2 23 -4z"/>
<path d="M4243 2706 c20 -8 44 -19 52 -26 20 -16 38 -76 33 -110 -2 -16 -1
-27 4 -24 13 8 9 61 -6 99 -16 37 -68 75 -101 75 -12 -1 -5 -6 18 -14z"/>
<path d="M3563 2540 c-48 -114 -49 -104 10 -114 53 -10 60 -1 37 45 -12 22
-18 45 -14 51 4 6 3 8 -4 4 -6 -3 -12 3 -14 16 l-4 23 -11 -25z"/>
<path d="M579 2808 c-2 -7 -3 -55 -1 -106 3 -71 7 -95 18 -99 23 -9 40 13 25
31 -14 17 -5 40 26 68 18 16 71 24 128 19 30 -3 30 -3 5 -11 -17 -5 -19 -8 -7
-9 16 -1 17 -19 17 -239 0 -237 0 -237 -25 -274 -14 -20 -25 -39 -25 -42 0 -4
39 -7 88 -8 l87 -2 -80 -6 -80 -6 88 -2 c52 -1 87 2 87 8 0 6 9 10 20 10 11 0
20 7 20 15 0 8 -6 15 -13 15 -8 0 -21 8 -30 18 -15 16 -17 51 -17 280 l0 262
28 0 c51 -1 104 -18 131 -44 15 -14 29 -26 32 -26 2 0 3 31 1 70 l-4 70 -239
2 c-277 1 -262 1 -270 11 -3 5 -8 3 -10 -5z m28 -105 c-2 -16 -4 -3 -4 27 0
30 2 43 4 28 2 -16 2 -40 0 -55z m432 48 c9 -6 -26 -7 -90 -4 -57 3 -106 7
-108 9 -10 9 185 3 198 -5z m-232 -133 c-3 -8 -6 -5 -6 6 -1 11 2 17 5 13 3
-3 4 -12 1 -19z m-202 2 c3 -5 1 -10 -4 -10 -6 0 -11 5 -11 10 0 6 2 10 4 10
3 0 8 -4 11 -10z m252 -57 c-3 -10 -5 -4 -5 12 0 17 2 24 5 18 2 -7 2 -21 0
-30z m-50 -270 c-1 -43 -3 -8 -3 77 0 85 2 120 3 78 2 -43 2 -113 0 -155z m96
-140 c-29 -2 -77 -2 -105 0 -29 2 -6 3 52 3 58 0 81 -1 53 -3z"/>
<path d="M1110 2812 c0 -4 14 -18 30 -30 l30 -23 0 -279 c0 -173 -4 -281 -10
-285 -6 -4 -7 1 -3 12 4 9 -9 2 -29 -17 -34 -34 -41 -67 -11 -56 8 3 62 6 119
6 78 0 104 3 104 13 0 7 -13 18 -29 24 -37 14 -43 41 -39 183 l3 105 108 3
c59 1 115 -2 125 -7 12 -7 -17 -10 -100 -11 -100 0 -117 -2 -112 -15 5 -12 26
-15 108 -13 96 1 98 2 36 8 l-65 7 70 1 70 2 0 -119 c0 -66 -2 -119 -5 -118
-10 3 -60 -41 -60 -52 0 -7 39 -11 120 -11 121 0 146 8 95 32 -14 6 -25 16
-25 22 -1 6 -2 121 -2 256 l-2 245 -6 -195 -6 -195 -2 225 c-1 124 2 230 6
236 4 6 16 16 27 22 16 9 0 11 -80 12 -59 0 -106 5 -112 11 -8 8 -13 8 -17 0
-9 -14 0 -28 26 -42 16 -8 19 -8 13 1 -6 9 -2 9 14 1 19 -11 21 -20 21 -121
l0 -110 -120 0 c-118 0 -120 0 -120 23 1 12 -2 56 -5 97 -6 78 5 118 35 128
13 5 13 3 0 -13 -14 -17 -14 -18 8 -6 45 24 20 35 -75 32 -54 -1 -100 2 -112
9 -12 6 -21 7 -21 2z m295 -311 c37 -8 35 -9 -27 -10 -40 -1 -68 3 -68 9 0 12
39 12 95 1z m78 -8 c-7 -2 -19 -2 -25 0 -7 3 -2 5 12 5 14 0 19 -2 13 -5z
m-200 -340 c-24 -2 -62 -2 -85 0 -24 2 -5 4 42 4 47 0 66 -2 43 -4z m210 0
c-7 -2 -19 -2 -25 0 -7 3 -2 5 12 5 14 0 19 -2 13 -5z m95 0 c-16 -2 -40 -2
-55 0 -16 2 -3 4 27 4 30 0 43 -2 28 -4z m65 0 c-7 -2 -19 -2 -25 0 -7 3 -2 5
12 5 14 0 19 -2 13 -5z"/>
<path d="M1110 2782 c0 -5 9 -12 20 -15 14 -4 20 -13 19 -34 0 -24 -1 -26 -9
-8 -6 14 -9 2 -9 -42 -1 -35 -5 -63 -10 -63 -4 0 -29 20 -53 45 -25 25 -54 45
-64 45 -13 -1 -9 -5 12 -14 17 -8 44 -32 60 -55 16 -22 34 -39 41 -36 21 7 27
-28 33 -185 6 -134 6 -122 6 94 -1 246 -1 249 -23 264 -13 8 -23 10 -23 4z"/>
<path d="M1664 2775 c-10 -8 -14 -15 -8 -15 6 0 17 7 24 15 16 19 9 19 -16 0z"/>
<path d="M1504 2665 c0 -55 1 -76 3 -47 2 29 2 74 0 100 -2 26 -3 2 -3 -53z"/>
<path d="M920 2703 c0 -12 3 -14 8 -7 4 7 18 14 32 17 21 4 20 4 -7 6 -25 1
-33 -3 -33 -16z"/>
<path d="M645 2679 c-14 -17 -23 -34 -19 -38 4 -3 9 0 12 8 3 8 16 25 30 38
14 13 20 23 14 23 -5 0 -22 -14 -37 -31z"/>
<path d="M2831 2674 c0 -11 3 -14 6 -6 3 7 2 16 -1 19 -3 4 -6 -2 -5 -13z"/>
<path d="M3670 2628 c0 -3 7 -21 15 -39 16 -34 16 -34 10 -4 -6 26 -25 60 -25
43z"/>
<path d="M3476 2565 c-9 -26 -7 -32 5 -12 6 10 9 21 6 23 -2 3 -7 -2 -11 -11z"/>
<path d="M3700 2541 c0 -6 4 -13 10 -16 6 -3 7 1 4 9 -7 18 -14 21 -14 7z"/>
<path d="M1653 2445 c0 -33 2 -45 4 -27 2 18 2 45 0 60 -2 15 -4 0 -4 -33z"/>
<path d="M4384 2455 c-50 -51 -97 -65 -211 -65 -77 0 -89 -2 -90 -17 -1 -16 7
-18 80 -13 l82 4 -75 6 -75 6 101 2 c84 2 108 6 150 27 28 14 57 38 68 55 10
17 16 32 14 33 -1 1 -21 -16 -44 -38z"/>
<path d="M2627 2478 c6 -7 18 -34 28 -61 10 -26 20 -46 22 -44 7 8 -38 117
-49 117 -7 0 -7 -4 -1 -12z"/>
<path d="M3730 2460 c0 -5 5 -10 11 -10 5 0 7 5 4 10 -3 6 -8 10 -11 10 -2 0
-4 -4 -4 -10z"/>
<path d="M3018 2433 c7 -3 16 -2 19 1 4 3 -2 6 -13 5 -11 0 -14 -3 -6 -6z"/>
<path d="M1282 2350 c0 -14 2 -19 5 -12 2 6 2 18 0 25 -3 6 -5 1 -5 -13z"/>
<path d="M3472 2318 c-5 -7 -13 -24 -17 -38 -5 -21 -3 -20 14 8 20 31 22 32
96 32 48 0 74 -4 70 -10 -3 -5 -1 -10 6 -10 7 0 20 -7 30 -16 13 -12 19 -12
25 -3 4 7 3 10 -2 7 -5 -3 -17 3 -26 13 -12 12 -13 19 -5 23 7 2 -31 5 -84 5
-66 1 -100 -3 -107 -11z"/>
<path d="M2185 2265 c-4 -31 -5 -58 -3 -61 3 -2 8 21 12 52 4 31 5 59 2 61 -2
3 -8 -21 -11 -52z"/>
<path d="M1148 2123 c12 -2 30 -2 40 0 9 3 -1 5 -23 4 -22 0 -30 -2 -17 -4z"/>
<path d="M2633 2123 c20 -2 54 -2 75 0 20 2 3 4 -38 4 -41 0 -58 -2 -37 -4z"/>
</g>
</svg>
